<svg viewBox="0 0 32 32" fill="currentColor" xmlns="http://www.w3.org/2000/svg">
<rect x="19" y="11" width="2" height="2" fill="currentColor"/>
<rect x="8" y="11" width="8" height="1" fill="currentColor"/>
<rect x="8" y="16" width="16" height="1" fill="currentColor"/>
<rect x="8" y="21" width="16" height="1" fill="currentColor"/>
<rect x="21" y="9" width="2" height="2" fill="currentColor"/>
<rect x="19" y="7" width="2" height="2" fill="currentColor"/>
<rect x="21" y="5" width="2" height="2" fill="currentColor"/>
<rect x="19" y="3" width="2" height="2" fill="currentColor"/>
<rect x="23" y="7" width="2" height="2" fill="currentColor"/>
<rect x="25" y="9" width="2" height="2" fill="currentColor"/>
<rect x="27" y="11" width="2" height="2" fill="currentColor"/>
<rect x="5" y="3" width="14" height="2" fill="currentColor"/>
<rect x="5" y="27" width="22" height="2" fill="currentColor"/>
<rect x="3" y="5" width="2" height="22" fill="currentColor"/>
<rect x="23" y="11" width="2" height="2" fill="currentColor"/>
<rect x="27" y="13" width="2" height="14" fill="currentColor"/>
</svg>