<svg viewBox="0 0 32 32" fill="currentColor" xmlns="http://www.w3.org/2000/svg">
<rect x="15" y="3" width="2" height="2" fill="currentColor"/>
<rect x="13" y="5" width="2" height="2" fill="currentColor"/>
<rect x="11" y="7" width="2" height="2" fill="currentColor"/>
<rect x="13" y="9" width="2" height="2" fill="currentColor"/>
<rect x="15" y="11" width="2" height="2" fill="currentColor"/>
<rect x="17" y="9" width="2" height="2" fill="currentColor"/>
<rect x="19" y="7" width="2" height="2" fill="currentColor"/>
<rect x="17" y="5" width="2" height="2" fill="currentColor"/>
<rect x="15" y="5" width="2" height="6" fill="currentColor"/>
<rect x="13" y="7" width="2" height="2" fill="currentColor"/>
<rect x="17" y="7" width="2" height="2" fill="currentColor"/>
<rect x="15" y="19" width="2" height="2" fill="currentColor"/>
<rect x="15" y="21" width="2" height="6" fill="currentColor"/>
<rect x="13" y="21" width="2" height="2" fill="currentColor"/>
<rect x="11" y="23" width="2" height="2" fill="currentColor"/>
<rect x="13" y="23" width="2" height="2" fill="currentColor"/>
<rect x="17" y="23" width="2" height="2" fill="currentColor"/>
<rect x="13" y="25" width="2" height="2" fill="currentColor"/>
<rect x="15" y="27" width="2" height="2" fill="currentColor"/>
<rect x="17" y="25" width="2" height="2" fill="currentColor"/>
<rect x="19" y="23" width="2" height="2" fill="currentColor"/>
<rect x="17" y="21" width="2" height="2" fill="currentColor"/>
<rect x="7" y="11" width="2" height="2" fill="currentColor"/>
<rect x="7" y="13" width="2" height="6" fill="currentColor"/>
<rect x="5" y="13" width="2" height="2" fill="currentColor"/>
<rect x="5" y="15" width="2" height="2" fill="currentColor"/>
<rect x="9" y="15" width="2" height="2" fill="currentColor"/>
<rect x="3" y="15" width="2" height="2" fill="currentColor"/>
<rect x="5" y="17" width="2" height="2" fill="currentColor"/>
<rect x="7" y="19" width="2" height="2" fill="currentColor"/>
<rect x="9" y="17" width="2" height="2" fill="currentColor"/>
<rect x="11" y="15" width="2" height="2" fill="currentColor"/>
<rect x="9" y="13" width="2" height="2" fill="currentColor"/>
<rect x="23" y="13" width="2" height="6" fill="currentColor"/>
<rect x="23" y="11" width="2" height="2" fill="currentColor"/>
<rect x="21" y="13" width="2" height="2" fill="currentColor"/>
<rect x="21" y="15" width="2" height="2" fill="currentColor"/>
<rect x="25" y="15" width="2" height="2" fill="currentColor"/>
<rect x="19" y="15" width="2" height="2" fill="currentColor"/>
<rect x="21" y="17" width="2" height="2" fill="currentColor"/>
<rect x="23" y="19" width="2" height="2" fill="currentColor"/>
<rect x="25" y="17" width="2" height="2" fill="currentColor"/>
<rect x="27" y="15" width="2" height="2" fill="currentColor"/>
<rect x="25" y="13" width="2" height="2" fill="currentColor"/>
</svg>