<svg viewBox="0 0 32 32" fill="none" xmlns="http://www.w3.org/2000/svg">
<rect x="15" y="9" width="2" height="2" fill="currentColor"/>
<rect x="3" y="3" width="7" height="2" fill="currentColor"/>
<rect x="3" y="22" width="7" height="2" fill="currentColor"/>
<rect x="22" y="22" width="7" height="2" fill="currentColor"/>
<rect x="22" y="3" width="7" height="2" fill="currentColor"/>
<rect x="3" y="8" width="7" height="2" fill="currentColor"/>
<rect x="3" y="27" width="7" height="2" fill="currentColor"/>
<rect x="22" y="27" width="7" height="2" fill="currentColor"/>
<rect x="22" y="8" width="7" height="2" fill="currentColor"/>
<rect x="10" y="5" width="12" height="2" fill="currentColor"/>
<rect x="10" y="25" width="12" height="2" fill="currentColor"/>
<rect x="14" y="11" width="2" height="2" fill="currentColor"/>
<rect x="13" y="13" width="2" height="2" fill="currentColor"/>
<rect x="12" y="15" width="2" height="2" fill="currentColor"/>
<rect x="11" y="17" width="10" height="2" fill="currentColor"/>
<rect x="10" y="19" width="2" height="2" fill="currentColor"/>
<rect x="20" y="19" width="2" height="2" fill="currentColor"/>
<rect x="18" y="15" width="2" height="2" fill="currentColor"/>
<rect x="17" y="13" width="2" height="2" fill="currentColor"/>
<rect x="16" y="11" width="2" height="2" fill="currentColor"/>
<rect x="3" y="5" width="2" height="3" fill="currentColor"/>
<rect x="3" y="24" width="2" height="3" fill="currentColor"/>
<rect x="22" y="24" width="2" height="3" fill="currentColor"/>
<rect x="22" y="5" width="2" height="3" fill="currentColor"/>
<rect x="8" y="5" width="2" height="3" fill="currentColor"/>
<rect x="8" y="24" width="2" height="3" fill="currentColor"/>
<rect x="27" y="24" width="2" height="3" fill="currentColor"/>
<rect x="27" y="5" width="2" height="3" fill="currentColor"/>
<rect x="5" y="10" width="2" height="12" fill="currentColor"/>
<rect x="25" y="10" width="2" height="12" fill="currentColor"/>
</svg>