<svg viewBox="0 0 32 32" fill="currentColor" xmlns="http://www.w3.org/2000/svg">
<rect x="10" y="10" width="12" height="3" fill="currentColor"/>
<rect x="10" y="19" width="12" height="3" fill="currentColor"/>
<rect x="19" y="12" width="3" height="8" fill="currentColor"/>
<rect x="10" y="12" width="3" height="8" fill="currentColor"/>
<rect x="5" y="9" width="2" height="2" fill="currentColor"/>
<rect x="5" y="13" width="2" height="2" fill="currentColor"/>
<rect x="5" y="17" width="2" height="2" fill="currentColor"/>
<rect x="5" y="21" width="2" height="2" fill="currentColor"/>
<rect x="5" y="25" width="2" height="2" fill="currentColor"/>
<rect x="9" y="25" width="2" height="2" fill="currentColor"/>
<rect x="13" y="25" width="2" height="2" fill="currentColor"/>
<rect x="17" y="25" width="2" height="2" fill="currentColor"/>
<rect x="21" y="25" width="2" height="2" fill="currentColor"/>
<rect x="5" y="5" width="2" height="2" fill="currentColor"/>
<rect x="9" y="5" width="2" height="2" fill="currentColor"/>
<rect x="13" y="5" width="2" height="2" fill="currentColor"/>
<rect x="17" y="5" width="2" height="2" fill="currentColor"/>
<rect x="21" y="5" width="2" height="2" fill="currentColor"/>
<rect x="25" y="5" width="2" height="2" fill="currentColor"/>
<rect x="25" y="13" width="2" height="2" fill="currentColor"/>
<rect x="25" y="9" width="2" height="2" fill="currentColor"/>
<rect x="25" y="21" width="2" height="2" fill="currentColor"/>
<rect x="25" y="17" width="2" height="2" fill="currentColor"/>
<rect x="25" y="25" width="2" height="2" fill="currentColor"/>
</svg>