<svg viewBox="0 0 32 32" fill="none" xmlns="http://www.w3.org/2000/svg">
<rect x="6" y="26" width="20" height="2" fill="currentColor"/>
<rect x="6" y="24" width="2" height="2" fill="currentColor"/>
<rect x="8" y="23" width="2" height="2" fill="currentColor"/>
<rect x="10" y="22" width="2" height="2" fill="currentColor"/>
<rect x="10" y="11" width="2" height="2" fill="currentColor"/>
<rect x="12" y="13" width="2" height="2" fill="currentColor"/>
<rect x="14" y="15" width="2" height="2" fill="currentColor"/>
<rect x="16" y="15" width="2" height="2" fill="currentColor"/>
<rect x="18" y="13" width="2" height="2" fill="currentColor"/>
<rect x="20" y="11" width="2" height="2" fill="currentColor"/>
<rect x="20" y="9" width="2" height="2" fill="currentColor"/>
<rect x="18" y="7" width="2" height="2" fill="currentColor"/>
<rect x="14" y="5" width="2" height="2" fill="currentColor"/>
<rect x="16" y="5" width="2" height="2" fill="currentColor"/>
<rect x="12" y="7" width="2" height="2" fill="currentColor"/>
<rect x="10" y="9" width="2" height="2" fill="currentColor"/>
<rect x="12" y="21" width="8" height="2" fill="currentColor"/>
<rect x="20" y="22" width="2" height="2" fill="currentColor"/>
<rect x="22" y="23" width="2" height="2" fill="currentColor"/>
<rect x="24" y="24" width="2" height="2" fill="currentColor"/>
</svg>